<svg id="svg-twitter" xmlns="http://www.w3.org/2000/svg" viewBox="0 0 124.11 124.11"><title>Twitter</title><path d="M199.05,335a62.05,62.05,0,1,0,62.05,62.05A62.05,62.05,0,0,0,199.05,335h0Zm46.81,39.49a35.82,35.82,0,0,1-10.3,2.82,18,18,0,0,0,7.88-9.92,35.93,35.93,0,0,1-11.39,4.35,17.94,17.94,0,0,0-30.55,16.35,50.9,50.9,0,0,1-37-18.74,18,18,0,0,0,5.55,23.94,17.87,17.87,0,0,1-8.12-2.24c0,0.07,0,.15,0,0.22a18,18,0,0,0,14.38,17.58,17.95,17.95,0,0,1-8.09.31A18,18,0,0,0,185,421.62,36.16,36.16,0,0,1,158.48,429,50.74,50.74,0,0,0,186,437.1c33,0,51-27.32,51-51q0-1.17-.05-2.32a36.45,36.45,0,0,0,8.94-9.28h0Z" transform="translate(-137 -335)"></path></svg>