<svg id="svg-twitter" xmlns="http://www.w3.org/2000/svg" viewBox="0 0 124.11 124.11"><title>GitHub</title><path d="M411.45,335a62.06,62.06,0,0,0-19.61,120.94c3.1,0.57,4.24-1.35,4.24-3,0-1.47-.05-5.38-0.08-10.55-17.26,3.75-20.9-8.32-20.9-8.32-2.82-7.17-6.89-9.08-6.89-9.08-5.63-3.85.43-3.77,0.43-3.77,6.23,0.44,9.51,6.39,9.51,6.39,5.53,9.48,14.52,6.74,18.06,5.16,0.56-4,2.17-6.74,3.94-8.3-13.78-1.57-28.27-6.89-28.27-30.67a24,24,0,0,1,6.39-16.65c-0.64-1.57-2.77-7.88.61-16.42,0,0,5.21-1.67,17.06,6.36a58.79,58.79,0,0,1,31.07,0c11.85-8,17-6.36,17-6.36,3.39,8.54,1.26,14.85.62,16.42A23.94,23.94,0,0,1,451,393.81c0,23.84-14.51,29.08-28.33,30.62,2.22,1.91,4.21,5.7,4.21,11.49,0,8.29-.08,15-0.08,17,0,1.66,1.12,3.59,4.27,3A62.06,62.06,0,0,0,411.45,335h0Z" transform="translate(-349.4 -335)"></path></svg>